<svg width="348" height="367" viewBox="0 0 348 367" fill="none" xmlns="http://www.w3.org/2000/svg">
<path d="M178.772 235.925L174 227.529L206.452 201.41L227.451 179.954C234.132 173.425 232.223 164.096 231.269 158.499C229.131 145.963 215.043 143.884 206.452 144.506V140.775H312.4V144.506C292.547 144.506 266.585 162.541 256.086 171.559L178.772 235.925Z" fill="#6054F7" stroke="#6054F7"/>
<path d="M122.211 328.49V188.333V185.472L217.46 323.723C228.462 337.707 258.954 365.675 292.904 365.675C326.854 365.675 342.257 342.792 345.715 331.351C348.544 317.049 348.544 288.445 325.911 288.445C303.278 288.445 302.649 302.429 305.164 309.421C315.726 333.83 329.683 329.126 335.341 323.723C338.799 319.274 344.206 314.57 338.171 331.351C330.626 352.327 311.788 358.047 291.961 358.047C272.157 358.047 254.239 346.793 245.751 341.839C231.417 333.471 209.601 302.757 200.485 288.445L144.845 206.448L97.6919 140.66C89.2045 129.219 79.7739 126.358 49.5962 126.358C19.4184 126.358 6.2157 144.792 3.38656 154.008C-0.700002 166.721 -2.46037 193.863 23.1907 200.728C48.8417 207.593 59.0267 195.325 60.9128 188.333C62.4846 179.752 60.5356 162.59 40.1657 162.59C19.7957 162.59 20.3615 182.93 23.1907 193.1C9.61072 189.421 6.21571 176.312 6.2157 170.217C5.90135 157.504 14.1374 132.079 49.5962 132.079C85.055 132.079 90.1475 153.055 90.1475 162.59V328.49C90.1475 353.661 66.8855 357.412 55.2545 356.14V360.908H157.104V356.14C124.663 356.14 122.211 338.025 122.211 328.49Z" fill="#6054F7" stroke="#6054F7"/>
<path d="M75.6274 69.0873C88.913 89.9547 98.8772 128.674 102.199 145.426C169.196 122.07 223.746 135.694 242.646 145.426C244.544 115.369 260.993 82.0098 268.98 69.0873C212.611 125.755 180.963 71.7994 172.185 37.7383C150.549 120.442 98.7982 93.0976 75.6274 69.0873Z" fill="#FFF700"/>
<path d="M212.754 153.801C196.938 151.089 158.283 146.862 130.193 151.648C102.104 156.434 102.357 162.416 105.995 164.81C110.581 167.681 129.055 173.425 166.254 173.425C203.454 173.425 228.57 171.351 236.478 170.314C241.46 169.66 248.056 160.167 224.141 154.998M102.199 145.426C98.8772 128.674 88.913 89.9547 75.6274 69.0873C98.7982 93.0976 150.549 120.442 172.185 37.7383C180.963 71.7994 212.611 125.755 268.98 69.0873C260.993 82.0098 244.544 115.369 242.646 145.426C223.746 135.694 169.196 122.07 102.199 145.426Z" stroke="#FFF700"/>
<circle cx="56.9706" cy="53.003" r="11.3725" stroke="#FFF700"/>
<circle cx="172.304" cy="12.2971" r="11.3725" stroke="#FFF700"/>
<circle cx="287.637" cy="53.003" r="11.3725" stroke="#FFF700"/>
</svg>
